<svg width="70" height="68" viewBox="0 0 70 68" fill="none" xmlns="http://www.w3.org/2000/svg">
<path d="M34.8688 0.429505C25.6089 0.464229 16.7402 4.16704 10.2048 10.7271C3.6694 17.2871 -6.51004e-05 26.1696 8.41322e-09 35.4295C-0.000144126 42.0044 1.85168 48.4463 5.34333 54.0174L34.5275 16.2903C34.5754 16.2282 34.6442 16.1766 34.7272 16.1407C34.8101 16.1049 34.9042 16.086 35 16.086C35.0958 16.086 35.1899 16.1049 35.2728 16.1407C35.3558 16.1766 35.4247 16.2282 35.4725 16.2903L64.6567 54.0174C68.1483 48.4463 70.0001 42.0044 70 35.4295C70 26.1469 66.3125 17.2445 59.7487 10.6808C53.185 4.11699 44.2826 0.429505 35 0.429505C34.9563 0.429423 34.9125 0.429423 34.8688 0.429505V0.429505ZM35.9625 19.2916L48.8425 67.5712C54.8937 64.9669 60.0871 60.7077 63.8254 55.2833L35.9625 19.2916Z" fill="url(#paint0_linear_420_117)"/>
<defs>
<linearGradient id="paint0_linear_420_117" x1="-1.69558e-07" y1="35.0607" x2="70" y2="35.0607" gradientUnits="userSpaceOnUse">
<stop stop-color="#F06625"/>
<stop offset="1" stop-color="#F9B818"/>
</linearGradient>
</defs>
</svg>
