<svg width="828" height="207" viewBox="0 0 828 207" fill="none" xmlns="http://www.w3.org/2000/svg">
<rect width="828" height="207" rx="10" fill="black"/>
<path d="M385.727 145H375.869V115.909H385.926C388.814 115.909 391.295 116.491 393.369 117.656C395.453 118.812 397.053 120.473 398.17 122.642C399.288 124.811 399.847 127.405 399.847 130.426C399.847 133.456 399.283 136.061 398.156 138.239C397.039 140.417 395.424 142.088 393.312 143.253C391.21 144.418 388.682 145 385.727 145ZM381.139 140.44H385.472C387.498 140.44 389.188 140.071 390.543 139.332C391.897 138.584 392.915 137.472 393.597 135.994C394.278 134.508 394.619 132.652 394.619 130.426C394.619 128.201 394.278 126.354 393.597 124.886C392.915 123.409 391.906 122.306 390.571 121.577C389.245 120.838 387.598 120.469 385.628 120.469H381.139V140.44ZM407.822 153.182C407.122 153.182 406.473 153.125 405.876 153.011C405.289 152.907 404.821 152.784 404.47 152.642L405.663 148.636C406.411 148.854 407.079 148.958 407.666 148.949C408.253 148.939 408.769 148.755 409.214 148.395C409.669 148.045 410.053 147.457 410.365 146.634L410.805 145.455L402.893 123.182H408.348L413.376 139.659H413.604L418.646 123.182H424.115L415.379 147.642C414.972 148.797 414.432 149.787 413.76 150.611C413.088 151.444 412.264 152.079 411.288 152.514C410.322 152.959 409.167 153.182 407.822 153.182ZM432.815 132.216V145H427.673V123.182H432.588V126.889H432.844C433.346 125.668 434.146 124.697 435.244 123.977C436.352 123.258 437.721 122.898 439.349 122.898C440.855 122.898 442.167 123.22 443.284 123.864C444.411 124.508 445.282 125.44 445.898 126.662C446.523 127.884 446.83 129.366 446.821 131.108V145H441.679V131.903C441.679 130.445 441.3 129.304 440.543 128.48C439.795 127.656 438.758 127.244 437.432 127.244C436.532 127.244 435.732 127.443 435.031 127.841C434.34 128.229 433.795 128.793 433.398 129.531C433.009 130.27 432.815 131.165 432.815 132.216Z" fill="white"/>
<path d="M337.151 179.155V167.905H338.365V169.205H338.514C338.607 169.063 338.734 168.882 338.898 168.662C339.065 168.438 339.303 168.239 339.612 168.065C339.924 167.888 340.347 167.799 340.879 167.799C341.568 167.799 342.175 167.971 342.701 168.315C343.227 168.66 343.637 169.148 343.931 169.78C344.226 170.412 344.374 171.158 344.374 172.018C344.374 172.884 344.226 173.635 343.931 174.271C343.637 174.903 343.228 175.393 342.706 175.741C342.184 176.085 341.582 176.258 340.901 176.258C340.375 176.258 339.954 176.171 339.638 175.997C339.322 175.819 339.079 175.618 338.908 175.395C338.738 175.167 338.607 174.979 338.514 174.83H338.408V179.155H337.151ZM338.386 171.996C338.386 172.614 338.477 173.159 338.658 173.632C338.839 174.1 339.104 174.468 339.452 174.734C339.8 174.997 340.226 175.128 340.73 175.128C341.256 175.128 341.694 174.99 342.046 174.713C342.401 174.432 342.667 174.056 342.845 173.584C343.026 173.108 343.116 172.579 343.116 171.996C343.116 171.421 343.028 170.902 342.85 170.441C342.676 169.976 342.412 169.608 342.056 169.338C341.705 169.065 341.263 168.928 340.73 168.928C340.219 168.928 339.789 169.058 339.441 169.317C339.093 169.573 338.83 169.931 338.653 170.393C338.475 170.851 338.386 171.385 338.386 171.996ZM346.291 176.087V167.905H347.506V169.141H347.591C347.74 168.736 348.01 168.408 348.401 168.156C348.791 167.904 349.232 167.777 349.722 167.777C349.814 167.777 349.929 167.779 350.068 167.783C350.206 167.786 350.311 167.792 350.382 167.799V169.077C350.339 169.067 350.242 169.051 350.089 169.029C349.94 169.004 349.782 168.992 349.615 168.992C349.217 168.992 348.862 169.075 348.55 169.242C348.241 169.406 347.996 169.633 347.815 169.924C347.637 170.212 347.548 170.54 347.548 170.91V176.087H346.291ZM354.947 176.258C354.208 176.258 353.56 176.082 353.003 175.73C352.449 175.379 352.016 174.887 351.703 174.255C351.394 173.623 351.24 172.884 351.24 172.039C351.24 171.187 351.394 170.443 351.703 169.807C352.016 169.171 352.449 168.678 353.003 168.326C353.56 167.975 354.208 167.799 354.947 167.799C355.686 167.799 356.332 167.975 356.886 168.326C357.444 168.678 357.877 169.171 358.186 169.807C358.498 170.443 358.654 171.187 358.654 172.039C358.654 172.884 358.498 173.623 358.186 174.255C357.877 174.887 357.444 175.379 356.886 175.73C356.332 176.082 355.686 176.258 354.947 176.258ZM354.947 175.128C355.508 175.128 355.97 174.985 356.332 174.697C356.694 174.409 356.962 174.031 357.136 173.562C357.31 173.094 357.397 172.586 357.397 172.039C357.397 171.492 357.31 170.982 357.136 170.51C356.962 170.038 356.694 169.656 356.332 169.365C355.97 169.074 355.508 168.928 354.947 168.928C354.386 168.928 353.924 169.074 353.562 169.365C353.2 169.656 352.932 170.038 352.758 170.51C352.584 170.982 352.497 171.492 352.497 172.039C352.497 172.586 352.584 173.094 352.758 173.562C352.932 174.031 353.2 174.409 353.562 174.697C353.924 174.985 354.386 175.128 354.947 175.128ZM364.132 167.905V168.971H359.892V167.905H364.132ZM361.127 165.945H362.384V173.743C362.384 174.099 362.436 174.365 362.539 174.542C362.646 174.716 362.78 174.834 362.944 174.894C363.111 174.951 363.286 174.979 363.471 174.979C363.61 174.979 363.723 174.972 363.812 174.958C363.901 174.94 363.972 174.926 364.025 174.915L364.281 176.045C364.196 176.077 364.077 176.108 363.924 176.14C363.771 176.176 363.578 176.194 363.343 176.194C362.988 176.194 362.64 176.117 362.299 175.965C361.962 175.812 361.681 175.579 361.458 175.267C361.237 174.954 361.127 174.56 361.127 174.084V165.945ZM369.259 176.258C368.52 176.258 367.872 176.082 367.314 175.73C366.76 175.379 366.327 174.887 366.015 174.255C365.706 173.623 365.551 172.884 365.551 172.039C365.551 171.187 365.706 170.443 366.015 169.807C366.327 169.171 366.76 168.678 367.314 168.326C367.872 167.975 368.52 167.799 369.259 167.799C369.997 167.799 370.644 167.975 371.198 168.326C371.755 168.678 372.188 169.171 372.497 169.807C372.81 170.443 372.966 171.187 372.966 172.039C372.966 172.884 372.81 173.623 372.497 174.255C372.188 174.887 371.755 175.379 371.198 175.73C370.644 176.082 369.997 176.258 369.259 176.258ZM369.259 175.128C369.82 175.128 370.281 174.985 370.644 174.697C371.006 174.409 371.274 174.031 371.448 173.562C371.622 173.094 371.709 172.586 371.709 172.039C371.709 171.492 371.622 170.982 371.448 170.51C371.274 170.038 371.006 169.656 370.644 169.365C370.281 169.074 369.82 168.928 369.259 168.928C368.698 168.928 368.236 169.074 367.874 169.365C367.511 169.656 367.243 170.038 367.069 170.51C366.895 170.982 366.808 171.492 366.808 172.039C366.808 172.586 366.895 173.094 367.069 173.562C367.243 174.031 367.511 174.409 367.874 174.697C368.236 174.985 368.698 175.128 369.259 175.128ZM378.209 176.258C377.442 176.258 376.781 176.077 376.227 175.714C375.673 175.352 375.247 174.853 374.949 174.217C374.651 173.582 374.501 172.856 374.501 172.039C374.501 171.208 374.654 170.475 374.96 169.839C375.268 169.2 375.698 168.701 376.249 168.342C376.803 167.98 377.449 167.799 378.188 167.799C378.763 167.799 379.281 167.905 379.743 168.118C380.205 168.331 380.583 168.63 380.877 169.013C381.172 169.397 381.355 169.844 381.426 170.356H380.169C380.073 169.983 379.86 169.652 379.53 169.365C379.203 169.074 378.763 168.928 378.209 168.928C377.719 168.928 377.289 169.056 376.92 169.312C376.554 169.564 376.268 169.921 376.062 170.382C375.86 170.84 375.759 171.378 375.759 171.996C375.759 172.628 375.858 173.179 376.057 173.648C376.259 174.116 376.543 174.48 376.909 174.74C377.278 174.999 377.712 175.128 378.209 175.128C378.536 175.128 378.832 175.072 379.098 174.958C379.365 174.844 379.59 174.681 379.775 174.468C379.96 174.255 380.091 173.999 380.169 173.701H381.426C381.355 174.184 381.179 174.619 380.899 175.006C380.622 175.389 380.254 175.695 379.796 175.922C379.342 176.146 378.813 176.258 378.209 176.258ZM387.951 170.824V171.996H383.179V170.824H387.951ZM393.466 179.326C392.859 179.326 392.337 179.248 391.9 179.091C391.463 178.939 391.099 178.736 390.808 178.484C390.52 178.236 390.291 177.969 390.121 177.685L391.122 176.982C391.236 177.131 391.38 177.302 391.554 177.493C391.728 177.689 391.965 177.857 392.267 177.999C392.573 178.145 392.972 178.218 393.466 178.218C394.126 178.218 394.671 178.058 395.101 177.738C395.531 177.419 395.746 176.918 395.746 176.236V174.574H395.639C395.547 174.724 395.415 174.908 395.245 175.128C395.078 175.345 394.837 175.539 394.521 175.709C394.208 175.876 393.785 175.959 393.253 175.959C392.592 175.959 391.999 175.803 391.474 175.491C390.952 175.178 390.538 174.724 390.233 174.127C389.931 173.53 389.78 172.806 389.78 171.954C389.78 171.116 389.927 170.386 390.222 169.764C390.517 169.139 390.927 168.656 391.452 168.315C391.978 167.971 392.585 167.799 393.274 167.799C393.807 167.799 394.229 167.888 394.542 168.065C394.858 168.239 395.099 168.438 395.266 168.662C395.437 168.882 395.568 169.063 395.66 169.205H395.788V167.905H397.003V176.322C397.003 177.025 396.843 177.596 396.523 178.037C396.207 178.481 395.781 178.806 395.245 179.012C394.712 179.221 394.119 179.326 393.466 179.326ZM393.423 174.83C393.927 174.83 394.354 174.715 394.702 174.484C395.05 174.253 395.314 173.921 395.495 173.488C395.676 173.054 395.767 172.536 395.767 171.932C395.767 171.343 395.678 170.823 395.501 170.372C395.323 169.921 395.06 169.567 394.712 169.312C394.364 169.056 393.935 168.928 393.423 168.928C392.891 168.928 392.447 169.063 392.092 169.333C391.74 169.603 391.475 169.965 391.298 170.42C391.124 170.874 391.037 171.378 391.037 171.932C391.037 172.501 391.126 173.003 391.303 173.44C391.484 173.873 391.751 174.214 392.102 174.463C392.457 174.708 392.898 174.83 393.423 174.83ZM402.734 176.258C401.946 176.258 401.266 176.084 400.694 175.736C400.126 175.384 399.687 174.894 399.378 174.265C399.073 173.633 398.92 172.898 398.92 172.06C398.92 171.222 399.073 170.483 399.378 169.844C399.687 169.202 400.117 168.701 400.668 168.342C401.222 167.98 401.868 167.799 402.606 167.799C403.033 167.799 403.453 167.87 403.869 168.012C404.284 168.154 404.663 168.385 405.003 168.704C405.344 169.02 405.616 169.439 405.818 169.961C406.021 170.483 406.122 171.126 406.122 171.89V172.422H399.815V171.336H404.844C404.844 170.874 404.751 170.462 404.567 170.1C404.386 169.738 404.126 169.452 403.789 169.242C403.455 169.033 403.061 168.928 402.606 168.928C402.106 168.928 401.672 169.052 401.307 169.301C400.945 169.546 400.666 169.866 400.47 170.26C400.275 170.654 400.177 171.077 400.177 171.527V172.252C400.177 172.87 400.284 173.394 400.497 173.823C400.714 174.249 401.014 174.574 401.397 174.798C401.781 175.018 402.226 175.128 402.734 175.128C403.065 175.128 403.363 175.082 403.629 174.99C403.899 174.894 404.132 174.752 404.327 174.564C404.522 174.372 404.673 174.134 404.78 173.85L405.994 174.191C405.866 174.603 405.652 174.965 405.35 175.277C405.048 175.586 404.675 175.828 404.231 176.002C403.787 176.172 403.288 176.258 402.734 176.258ZM409.291 171.165V176.087H408.034V167.905H409.249V169.184H409.355C409.547 168.768 409.838 168.434 410.229 168.182C410.62 167.927 411.124 167.799 411.742 167.799C412.296 167.799 412.78 167.912 413.196 168.14C413.611 168.363 413.935 168.704 414.165 169.162C414.396 169.617 414.512 170.192 414.512 170.888V176.087H413.255V170.974C413.255 170.331 413.088 169.83 412.754 169.471C412.42 169.109 411.962 168.928 411.38 168.928C410.978 168.928 410.62 169.015 410.304 169.189C409.991 169.363 409.744 169.617 409.563 169.951C409.382 170.285 409.291 170.689 409.291 171.165ZM421.496 170.824V171.996H416.724V170.824H421.496ZM427.266 167.905V168.971H423.026V167.905H427.266ZM424.262 165.945H425.519V173.743C425.519 174.099 425.571 174.365 425.674 174.542C425.78 174.716 425.915 174.834 426.079 174.894C426.245 174.951 426.421 174.979 426.606 174.979C426.744 174.979 426.858 174.972 426.947 174.958C427.036 174.94 427.107 174.926 427.16 174.915L427.416 176.045C427.33 176.077 427.211 176.108 427.059 176.14C426.906 176.176 426.712 176.194 426.478 176.194C426.123 176.194 425.775 176.117 425.434 175.965C425.097 175.812 424.816 175.579 424.592 175.267C424.372 174.954 424.262 174.56 424.262 174.084V165.945ZM432.5 176.258C431.712 176.258 431.032 176.084 430.46 175.736C429.892 175.384 429.453 174.894 429.144 174.265C428.839 173.633 428.686 172.898 428.686 172.06C428.686 171.222 428.839 170.483 429.144 169.844C429.453 169.202 429.883 168.701 430.433 168.342C430.987 167.98 431.633 167.799 432.372 167.799C432.798 167.799 433.219 167.87 433.634 168.012C434.05 168.154 434.428 168.385 434.769 168.704C435.11 169.02 435.382 169.439 435.584 169.961C435.786 170.483 435.888 171.126 435.888 171.89V172.422H429.581V171.336H434.609C434.609 170.874 434.517 170.462 434.332 170.1C434.151 169.738 433.892 169.452 433.555 169.242C433.221 169.033 432.827 168.928 432.372 168.928C431.871 168.928 431.438 169.052 431.072 169.301C430.71 169.546 430.431 169.866 430.236 170.26C430.041 170.654 429.943 171.077 429.943 171.527V172.252C429.943 172.87 430.05 173.394 430.263 173.823C430.479 174.249 430.779 174.574 431.163 174.798C431.546 175.018 431.992 175.128 432.5 175.128C432.83 175.128 433.128 175.082 433.395 174.99C433.665 174.894 433.897 174.752 434.093 174.564C434.288 174.372 434.439 174.134 434.545 173.85L435.76 174.191C435.632 174.603 435.417 174.965 435.115 175.277C434.813 175.586 434.441 175.828 433.997 176.002C433.553 176.172 433.054 176.258 432.5 176.258ZM437.8 176.087V167.905H439.014V169.184H439.121C439.291 168.747 439.567 168.408 439.947 168.166C440.327 167.921 440.783 167.799 441.316 167.799C441.855 167.799 442.305 167.921 442.663 168.166C443.025 168.408 443.308 168.747 443.51 169.184H443.595C443.805 168.761 444.119 168.426 444.538 168.177C444.957 167.925 445.46 167.799 446.046 167.799C446.777 167.799 447.376 168.028 447.841 168.486C448.306 168.94 448.539 169.649 448.539 170.611V176.087H447.282V170.611C447.282 170.008 447.116 169.576 446.786 169.317C446.456 169.058 446.067 168.928 445.62 168.928C445.044 168.928 444.599 169.102 444.283 169.45C443.967 169.795 443.809 170.231 443.809 170.76V176.087H442.53V170.483C442.53 170.018 442.379 169.644 442.077 169.36C441.775 169.072 441.387 168.928 440.911 168.928C440.584 168.928 440.279 169.015 439.995 169.189C439.714 169.363 439.487 169.605 439.313 169.914C439.142 170.219 439.057 170.572 439.057 170.974V176.087H437.8ZM450.837 179.155V167.905H452.052V169.205H452.201C452.293 169.063 452.421 168.882 452.584 168.662C452.751 168.438 452.989 168.239 453.298 168.065C453.611 167.888 454.033 167.799 454.566 167.799C455.255 167.799 455.862 167.971 456.388 168.315C456.913 168.66 457.323 169.148 457.618 169.78C457.913 170.412 458.06 171.158 458.06 172.018C458.06 172.884 457.913 173.635 457.618 174.271C457.323 174.903 456.915 175.393 456.393 175.741C455.871 176.085 455.269 176.258 454.587 176.258C454.062 176.258 453.641 176.171 453.325 175.997C453.009 175.819 452.765 175.618 452.595 175.395C452.424 175.167 452.293 174.979 452.201 174.83H452.094V179.155H450.837ZM452.073 171.996C452.073 172.614 452.163 173.159 452.345 173.632C452.526 174.1 452.79 174.468 453.138 174.734C453.486 174.997 453.912 175.128 454.417 175.128C454.942 175.128 455.381 174.99 455.732 174.713C456.087 174.432 456.354 174.056 456.531 173.584C456.712 173.108 456.803 172.579 456.803 171.996C456.803 171.421 456.714 170.902 456.537 170.441C456.363 169.976 456.098 169.608 455.743 169.338C455.391 169.065 454.949 168.928 454.417 168.928C453.905 168.928 453.476 169.058 453.128 169.317C452.78 169.573 452.517 169.931 452.339 170.393C452.162 170.851 452.073 171.385 452.073 171.996ZM463.302 176.258C462.563 176.258 461.915 176.082 461.357 175.73C460.803 175.379 460.37 174.887 460.058 174.255C459.749 173.623 459.594 172.884 459.594 172.039C459.594 171.187 459.749 170.443 460.058 169.807C460.37 169.171 460.803 168.678 461.357 168.326C461.915 167.975 462.563 167.799 463.302 167.799C464.04 167.799 464.687 167.975 465.241 168.326C465.798 168.678 466.231 169.171 466.54 169.807C466.853 170.443 467.009 171.187 467.009 172.039C467.009 172.884 466.853 173.623 466.54 174.255C466.231 174.887 465.798 175.379 465.241 175.73C464.687 176.082 464.04 176.258 463.302 176.258ZM463.302 175.128C463.863 175.128 464.324 174.985 464.687 174.697C465.049 174.409 465.317 174.031 465.491 173.562C465.665 173.094 465.752 172.586 465.752 172.039C465.752 171.492 465.665 170.982 465.491 170.51C465.317 170.038 465.049 169.656 464.687 169.365C464.324 169.074 463.863 168.928 463.302 168.928C462.741 168.928 462.279 169.074 461.917 169.365C461.554 169.656 461.286 170.038 461.112 170.51C460.938 170.982 460.851 171.492 460.851 172.039C460.851 172.586 460.938 173.094 461.112 173.562C461.286 174.031 461.554 174.409 461.917 174.697C462.279 174.985 462.741 175.128 463.302 175.128ZM468.928 176.087V167.905H470.142V169.141H470.228C470.377 168.736 470.647 168.408 471.037 168.156C471.428 167.904 471.868 167.777 472.358 167.777C472.451 167.777 472.566 167.779 472.705 167.783C472.843 167.786 472.948 167.792 473.019 167.799V169.077C472.976 169.067 472.879 169.051 472.726 169.029C472.577 169.004 472.419 168.992 472.252 168.992C471.854 168.992 471.499 169.075 471.186 169.242C470.877 169.406 470.632 169.633 470.451 169.924C470.274 170.212 470.185 170.54 470.185 170.91V176.087H468.928ZM476.917 176.279C476.398 176.279 475.928 176.181 475.505 175.986C475.082 175.787 474.747 175.501 474.498 175.128C474.25 174.752 474.125 174.297 474.125 173.765C474.125 173.296 474.218 172.916 474.402 172.625C474.587 172.33 474.834 172.099 475.143 171.932C475.452 171.765 475.793 171.641 476.166 171.559C476.542 171.474 476.92 171.407 477.3 171.357C477.797 171.293 478.2 171.245 478.509 171.213C478.822 171.178 479.049 171.119 479.191 171.037C479.337 170.956 479.41 170.814 479.41 170.611V170.569C479.41 170.043 479.266 169.635 478.978 169.344C478.694 169.052 478.263 168.907 477.684 168.907C477.084 168.907 476.613 169.038 476.272 169.301C475.931 169.564 475.691 169.844 475.553 170.143L474.36 169.716C474.573 169.219 474.857 168.832 475.212 168.555C475.571 168.275 475.961 168.079 476.384 167.969C476.81 167.856 477.229 167.799 477.641 167.799C477.904 167.799 478.206 167.831 478.547 167.895C478.891 167.955 479.223 168.081 479.543 168.273C479.866 168.465 480.134 168.754 480.347 169.141C480.56 169.528 480.667 170.047 480.667 170.697V176.087H479.41V174.979H479.346C479.26 175.157 479.118 175.347 478.919 175.549C478.721 175.752 478.456 175.924 478.126 176.066C477.796 176.208 477.392 176.279 476.917 176.279ZM477.108 175.15C477.606 175.15 478.025 175.052 478.366 174.857C478.71 174.661 478.969 174.409 479.143 174.1C479.321 173.791 479.41 173.466 479.41 173.126V171.975C479.356 172.039 479.239 172.097 479.058 172.151C478.88 172.2 478.674 172.245 478.44 172.284C478.209 172.319 477.984 172.351 477.764 172.38C477.547 172.405 477.371 172.426 477.236 172.444C476.91 172.486 476.604 172.556 476.32 172.651C476.04 172.744 475.812 172.884 475.638 173.072C475.468 173.257 475.383 173.509 475.383 173.829C475.383 174.265 475.544 174.596 475.867 174.819C476.194 175.04 476.608 175.15 477.108 175.15ZM484.218 165.178V176.087H482.961V165.178H484.218Z" fill="white"/>
<path d="M413.869 28.4295C404.609 28.4642 395.74 32.167 389.205 38.7271C382.669 45.2871 379 54.1696 379 63.4295C379 70.0044 380.852 76.4463 384.343 82.0174L413.528 44.2903C413.575 44.2282 413.644 44.1766 413.727 44.1407C413.81 44.1049 413.904 44.086 414 44.086C414.096 44.086 414.19 44.1049 414.273 44.1407C414.356 44.1766 414.425 44.2282 414.473 44.2903L443.657 82.0174C447.148 76.4463 449 70.0044 449 63.4295C449 54.1469 445.313 45.2445 438.749 38.6808C432.185 32.117 423.283 28.4295 414 28.4295C413.956 28.4294 413.913 28.4294 413.869 28.4295V28.4295ZM414.963 47.2916L427.843 95.5712C433.894 92.9669 439.087 88.7077 442.825 83.2833L414.963 47.2916Z" fill="url(#paint0_linear_335_5)"/>
<defs>
<linearGradient id="paint0_linear_335_5" x1="379" y1="63.0607" x2="449" y2="63.0607" gradientUnits="userSpaceOnUse">
<stop stop-color="#F06625"/>
<stop offset="1" stop-color="#F9B818"/>
</linearGradient>
</defs>
</svg>
