<svg width="836" height="215" viewBox="0 0 836 215" fill="none" xmlns="http://www.w3.org/2000/svg">
<g filter="url(#filter0_d_335_5)">
<rect x="4" width="828" height="207" rx="20" fill="black"/>
</g>
<path d="M389.727 145H379.869V115.909H389.926C392.814 115.909 395.295 116.491 397.369 117.656C399.453 118.812 401.053 120.473 402.17 122.642C403.288 124.811 403.847 127.405 403.847 130.426C403.847 133.456 403.283 136.061 402.156 138.239C401.039 140.417 399.424 142.088 397.312 143.253C395.21 144.418 392.682 145 389.727 145ZM385.139 140.44H389.472C391.498 140.44 393.188 140.071 394.543 139.332C395.897 138.584 396.915 137.472 397.597 135.994C398.278 134.508 398.619 132.652 398.619 130.426C398.619 128.201 398.278 126.354 397.597 124.886C396.915 123.409 395.906 122.306 394.571 121.577C393.245 120.838 391.598 120.469 389.628 120.469H385.139V140.44ZM411.822 153.182C411.122 153.182 410.473 153.125 409.876 153.011C409.289 152.907 408.821 152.784 408.47 152.642L409.663 148.636C410.411 148.854 411.079 148.958 411.666 148.949C412.253 148.939 412.769 148.755 413.214 148.395C413.669 148.045 414.053 147.457 414.365 146.634L414.805 145.455L406.893 123.182H412.348L417.376 139.659H417.604L422.646 123.182H428.115L419.379 147.642C418.972 148.797 418.432 149.787 417.76 150.611C417.088 151.444 416.264 152.079 415.288 152.514C414.322 152.959 413.167 153.182 411.822 153.182ZM436.815 132.216V145H431.673V123.182H436.588V126.889H436.844C437.346 125.668 438.146 124.697 439.244 123.977C440.352 123.258 441.721 122.898 443.349 122.898C444.855 122.898 446.167 123.22 447.284 123.864C448.411 124.508 449.282 125.44 449.898 126.662C450.523 127.884 450.83 129.366 450.821 131.108V145H445.679V131.903C445.679 130.445 445.3 129.304 444.543 128.48C443.795 127.656 442.758 127.244 441.432 127.244C440.532 127.244 439.732 127.443 439.031 127.841C438.34 128.229 437.795 128.793 437.398 129.531C437.009 130.27 436.815 131.165 436.815 132.216Z" fill="white"/>
<path d="M341.151 179.155V167.905H342.365V169.205H342.514C342.607 169.063 342.734 168.882 342.898 168.662C343.065 168.438 343.303 168.239 343.612 168.065C343.924 167.888 344.347 167.799 344.879 167.799C345.568 167.799 346.175 167.971 346.701 168.315C347.227 168.66 347.637 169.148 347.931 169.78C348.226 170.412 348.374 171.158 348.374 172.018C348.374 172.884 348.226 173.635 347.931 174.271C347.637 174.903 347.228 175.393 346.706 175.741C346.184 176.085 345.582 176.258 344.901 176.258C344.375 176.258 343.954 176.171 343.638 175.997C343.322 175.819 343.079 175.618 342.908 175.395C342.738 175.167 342.607 174.979 342.514 174.83H342.408V179.155H341.151ZM342.386 171.996C342.386 172.614 342.477 173.159 342.658 173.632C342.839 174.1 343.104 174.468 343.452 174.734C343.8 174.997 344.226 175.128 344.73 175.128C345.256 175.128 345.694 174.99 346.046 174.713C346.401 174.432 346.667 174.056 346.845 173.584C347.026 173.108 347.116 172.579 347.116 171.996C347.116 171.421 347.028 170.902 346.85 170.441C346.676 169.976 346.412 169.608 346.056 169.338C345.705 169.065 345.263 168.928 344.73 168.928C344.219 168.928 343.789 169.058 343.441 169.317C343.093 169.573 342.83 169.931 342.653 170.393C342.475 170.851 342.386 171.385 342.386 171.996ZM350.291 176.087V167.905H351.506V169.141H351.591C351.74 168.736 352.01 168.408 352.401 168.156C352.791 167.904 353.232 167.777 353.722 167.777C353.814 167.777 353.929 167.779 354.068 167.783C354.206 167.786 354.311 167.792 354.382 167.799V169.077C354.339 169.067 354.242 169.051 354.089 169.029C353.94 169.004 353.782 168.992 353.615 168.992C353.217 168.992 352.862 169.075 352.55 169.242C352.241 169.406 351.996 169.633 351.815 169.924C351.637 170.212 351.548 170.54 351.548 170.91V176.087H350.291ZM358.947 176.258C358.208 176.258 357.56 176.082 357.003 175.73C356.449 175.379 356.016 174.887 355.703 174.255C355.394 173.623 355.24 172.884 355.24 172.039C355.24 171.187 355.394 170.443 355.703 169.807C356.016 169.171 356.449 168.678 357.003 168.326C357.56 167.975 358.208 167.799 358.947 167.799C359.686 167.799 360.332 167.975 360.886 168.326C361.444 168.678 361.877 169.171 362.186 169.807C362.498 170.443 362.654 171.187 362.654 172.039C362.654 172.884 362.498 173.623 362.186 174.255C361.877 174.887 361.444 175.379 360.886 175.73C360.332 176.082 359.686 176.258 358.947 176.258ZM358.947 175.128C359.508 175.128 359.97 174.985 360.332 174.697C360.694 174.409 360.962 174.031 361.136 173.562C361.31 173.094 361.397 172.586 361.397 172.039C361.397 171.492 361.31 170.982 361.136 170.51C360.962 170.038 360.694 169.656 360.332 169.365C359.97 169.074 359.508 168.928 358.947 168.928C358.386 168.928 357.924 169.074 357.562 169.365C357.2 169.656 356.932 170.038 356.758 170.51C356.584 170.982 356.497 171.492 356.497 172.039C356.497 172.586 356.584 173.094 356.758 173.562C356.932 174.031 357.2 174.409 357.562 174.697C357.924 174.985 358.386 175.128 358.947 175.128ZM368.132 167.905V168.971H363.892V167.905H368.132ZM365.127 165.945H366.384V173.743C366.384 174.099 366.436 174.365 366.539 174.542C366.646 174.716 366.78 174.834 366.944 174.894C367.111 174.951 367.286 174.979 367.471 174.979C367.61 174.979 367.723 174.972 367.812 174.958C367.901 174.94 367.972 174.926 368.025 174.915L368.281 176.045C368.196 176.077 368.077 176.108 367.924 176.14C367.771 176.176 367.578 176.194 367.343 176.194C366.988 176.194 366.64 176.117 366.299 175.965C365.962 175.812 365.681 175.579 365.458 175.267C365.237 174.954 365.127 174.56 365.127 174.084V165.945ZM373.259 176.258C372.52 176.258 371.872 176.082 371.314 175.73C370.76 175.379 370.327 174.887 370.015 174.255C369.706 173.623 369.551 172.884 369.551 172.039C369.551 171.187 369.706 170.443 370.015 169.807C370.327 169.171 370.76 168.678 371.314 168.326C371.872 167.975 372.52 167.799 373.259 167.799C373.997 167.799 374.644 167.975 375.198 168.326C375.755 168.678 376.188 169.171 376.497 169.807C376.81 170.443 376.966 171.187 376.966 172.039C376.966 172.884 376.81 173.623 376.497 174.255C376.188 174.887 375.755 175.379 375.198 175.73C374.644 176.082 373.997 176.258 373.259 176.258ZM373.259 175.128C373.82 175.128 374.281 174.985 374.644 174.697C375.006 174.409 375.274 174.031 375.448 173.562C375.622 173.094 375.709 172.586 375.709 172.039C375.709 171.492 375.622 170.982 375.448 170.51C375.274 170.038 375.006 169.656 374.644 169.365C374.281 169.074 373.82 168.928 373.259 168.928C372.698 168.928 372.236 169.074 371.874 169.365C371.511 169.656 371.243 170.038 371.069 170.51C370.895 170.982 370.808 171.492 370.808 172.039C370.808 172.586 370.895 173.094 371.069 173.562C371.243 174.031 371.511 174.409 371.874 174.697C372.236 174.985 372.698 175.128 373.259 175.128ZM382.209 176.258C381.442 176.258 380.781 176.077 380.227 175.714C379.673 175.352 379.247 174.853 378.949 174.217C378.651 173.582 378.501 172.856 378.501 172.039C378.501 171.208 378.654 170.475 378.96 169.839C379.268 169.2 379.698 168.701 380.249 168.342C380.803 167.98 381.449 167.799 382.188 167.799C382.763 167.799 383.281 167.905 383.743 168.118C384.205 168.331 384.583 168.63 384.877 169.013C385.172 169.397 385.355 169.844 385.426 170.356H384.169C384.073 169.983 383.86 169.652 383.53 169.365C383.203 169.074 382.763 168.928 382.209 168.928C381.719 168.928 381.289 169.056 380.92 169.312C380.554 169.564 380.268 169.921 380.062 170.382C379.86 170.84 379.759 171.378 379.759 171.996C379.759 172.628 379.858 173.179 380.057 173.648C380.259 174.116 380.543 174.48 380.909 174.74C381.278 174.999 381.712 175.128 382.209 175.128C382.536 175.128 382.832 175.072 383.098 174.958C383.365 174.844 383.59 174.681 383.775 174.468C383.96 174.255 384.091 173.999 384.169 173.701H385.426C385.355 174.184 385.179 174.619 384.899 175.006C384.622 175.389 384.254 175.695 383.796 175.922C383.342 176.146 382.813 176.258 382.209 176.258ZM391.951 170.824V171.996H387.179V170.824H391.951ZM397.466 179.326C396.859 179.326 396.337 179.248 395.9 179.091C395.463 178.939 395.099 178.736 394.808 178.484C394.52 178.236 394.291 177.969 394.121 177.685L395.122 176.982C395.236 177.131 395.38 177.302 395.554 177.493C395.728 177.689 395.965 177.857 396.267 177.999C396.573 178.145 396.972 178.218 397.466 178.218C398.126 178.218 398.671 178.058 399.101 177.738C399.531 177.419 399.746 176.918 399.746 176.236V174.574H399.639C399.547 174.724 399.415 174.908 399.245 175.128C399.078 175.345 398.837 175.539 398.521 175.709C398.208 175.876 397.785 175.959 397.253 175.959C396.592 175.959 395.999 175.803 395.474 175.491C394.952 175.178 394.538 174.724 394.233 174.127C393.931 173.53 393.78 172.806 393.78 171.954C393.78 171.116 393.927 170.386 394.222 169.764C394.517 169.139 394.927 168.656 395.452 168.315C395.978 167.971 396.585 167.799 397.274 167.799C397.807 167.799 398.229 167.888 398.542 168.065C398.858 168.239 399.099 168.438 399.266 168.662C399.437 168.882 399.568 169.063 399.66 169.205H399.788V167.905H401.003V176.322C401.003 177.025 400.843 177.596 400.523 178.037C400.207 178.481 399.781 178.806 399.245 179.012C398.712 179.221 398.119 179.326 397.466 179.326ZM397.423 174.83C397.927 174.83 398.354 174.715 398.702 174.484C399.05 174.253 399.314 173.921 399.495 173.488C399.676 173.054 399.767 172.536 399.767 171.932C399.767 171.343 399.678 170.823 399.501 170.372C399.323 169.921 399.06 169.567 398.712 169.312C398.364 169.056 397.935 168.928 397.423 168.928C396.891 168.928 396.447 169.063 396.092 169.333C395.74 169.603 395.475 169.965 395.298 170.42C395.124 170.874 395.037 171.378 395.037 171.932C395.037 172.501 395.126 173.003 395.303 173.44C395.484 173.873 395.751 174.214 396.102 174.463C396.457 174.708 396.898 174.83 397.423 174.83ZM406.734 176.258C405.946 176.258 405.266 176.084 404.694 175.736C404.126 175.384 403.687 174.894 403.378 174.265C403.073 173.633 402.92 172.898 402.92 172.06C402.92 171.222 403.073 170.483 403.378 169.844C403.687 169.202 404.117 168.701 404.668 168.342C405.222 167.98 405.868 167.799 406.606 167.799C407.033 167.799 407.453 167.87 407.869 168.012C408.284 168.154 408.663 168.385 409.003 168.704C409.344 169.02 409.616 169.439 409.818 169.961C410.021 170.483 410.122 171.126 410.122 171.89V172.422H403.815V171.336H408.844C408.844 170.874 408.751 170.462 408.567 170.1C408.386 169.738 408.126 169.452 407.789 169.242C407.455 169.033 407.061 168.928 406.606 168.928C406.106 168.928 405.672 169.052 405.307 169.301C404.945 169.546 404.666 169.866 404.47 170.26C404.275 170.654 404.177 171.077 404.177 171.527V172.252C404.177 172.87 404.284 173.394 404.497 173.823C404.714 174.249 405.014 174.574 405.397 174.798C405.781 175.018 406.226 175.128 406.734 175.128C407.065 175.128 407.363 175.082 407.629 174.99C407.899 174.894 408.132 174.752 408.327 174.564C408.522 174.372 408.673 174.134 408.78 173.85L409.994 174.191C409.866 174.603 409.652 174.965 409.35 175.277C409.048 175.586 408.675 175.828 408.231 176.002C407.787 176.172 407.288 176.258 406.734 176.258ZM413.291 171.165V176.087H412.034V167.905H413.249V169.184H413.355C413.547 168.768 413.838 168.434 414.229 168.182C414.62 167.927 415.124 167.799 415.742 167.799C416.296 167.799 416.78 167.912 417.196 168.14C417.611 168.363 417.935 168.704 418.165 169.162C418.396 169.617 418.512 170.192 418.512 170.888V176.087H417.255V170.974C417.255 170.331 417.088 169.83 416.754 169.471C416.42 169.109 415.962 168.928 415.38 168.928C414.978 168.928 414.62 169.015 414.304 169.189C413.991 169.363 413.744 169.617 413.563 169.951C413.382 170.285 413.291 170.689 413.291 171.165ZM425.496 170.824V171.996H420.724V170.824H425.496ZM431.266 167.905V168.971H427.026V167.905H431.266ZM428.262 165.945H429.519V173.743C429.519 174.099 429.571 174.365 429.674 174.542C429.78 174.716 429.915 174.834 430.079 174.894C430.245 174.951 430.421 174.979 430.606 174.979C430.744 174.979 430.858 174.972 430.947 174.958C431.036 174.94 431.107 174.926 431.16 174.915L431.416 176.045C431.33 176.077 431.211 176.108 431.059 176.14C430.906 176.176 430.712 176.194 430.478 176.194C430.123 176.194 429.775 176.117 429.434 175.965C429.097 175.812 428.816 175.579 428.592 175.267C428.372 174.954 428.262 174.56 428.262 174.084V165.945ZM436.5 176.258C435.712 176.258 435.032 176.084 434.46 175.736C433.892 175.384 433.453 174.894 433.144 174.265C432.839 173.633 432.686 172.898 432.686 172.06C432.686 171.222 432.839 170.483 433.144 169.844C433.453 169.202 433.883 168.701 434.433 168.342C434.987 167.98 435.633 167.799 436.372 167.799C436.798 167.799 437.219 167.87 437.634 168.012C438.05 168.154 438.428 168.385 438.769 168.704C439.11 169.02 439.382 169.439 439.584 169.961C439.786 170.483 439.888 171.126 439.888 171.89V172.422H433.581V171.336H438.609C438.609 170.874 438.517 170.462 438.332 170.1C438.151 169.738 437.892 169.452 437.555 169.242C437.221 169.033 436.827 168.928 436.372 168.928C435.871 168.928 435.438 169.052 435.072 169.301C434.71 169.546 434.431 169.866 434.236 170.26C434.041 170.654 433.943 171.077 433.943 171.527V172.252C433.943 172.87 434.05 173.394 434.263 173.823C434.479 174.249 434.779 174.574 435.163 174.798C435.546 175.018 435.992 175.128 436.5 175.128C436.83 175.128 437.128 175.082 437.395 174.99C437.665 174.894 437.897 174.752 438.093 174.564C438.288 174.372 438.439 174.134 438.545 173.85L439.76 174.191C439.632 174.603 439.417 174.965 439.115 175.277C438.813 175.586 438.441 175.828 437.997 176.002C437.553 176.172 437.054 176.258 436.5 176.258ZM441.8 176.087V167.905H443.014V169.184H443.121C443.291 168.747 443.567 168.408 443.947 168.166C444.327 167.921 444.783 167.799 445.316 167.799C445.855 167.799 446.305 167.921 446.663 168.166C447.025 168.408 447.308 168.747 447.51 169.184H447.595C447.805 168.761 448.119 168.426 448.538 168.177C448.957 167.925 449.46 167.799 450.046 167.799C450.777 167.799 451.376 168.028 451.841 168.486C452.306 168.94 452.539 169.649 452.539 170.611V176.087H451.282V170.611C451.282 170.008 451.116 169.576 450.786 169.317C450.456 169.058 450.067 168.928 449.62 168.928C449.044 168.928 448.599 169.102 448.283 169.45C447.967 169.795 447.809 170.231 447.809 170.76V176.087H446.53V170.483C446.53 170.018 446.379 169.644 446.077 169.36C445.775 169.072 445.387 168.928 444.911 168.928C444.584 168.928 444.279 169.015 443.995 169.189C443.714 169.363 443.487 169.605 443.313 169.914C443.142 170.219 443.057 170.572 443.057 170.974V176.087H441.8ZM454.837 179.155V167.905H456.052V169.205H456.201C456.293 169.063 456.421 168.882 456.584 168.662C456.751 168.438 456.989 168.239 457.298 168.065C457.611 167.888 458.033 167.799 458.566 167.799C459.255 167.799 459.862 167.971 460.388 168.315C460.913 168.66 461.323 169.148 461.618 169.78C461.913 170.412 462.06 171.158 462.06 172.018C462.06 172.884 461.913 173.635 461.618 174.271C461.323 174.903 460.915 175.393 460.393 175.741C459.871 176.085 459.269 176.258 458.587 176.258C458.062 176.258 457.641 176.171 457.325 175.997C457.009 175.819 456.765 175.618 456.595 175.395C456.424 175.167 456.293 174.979 456.201 174.83H456.094V179.155H454.837ZM456.073 171.996C456.073 172.614 456.163 173.159 456.345 173.632C456.526 174.1 456.79 174.468 457.138 174.734C457.486 174.997 457.912 175.128 458.417 175.128C458.942 175.128 459.381 174.99 459.732 174.713C460.087 174.432 460.354 174.056 460.531 173.584C460.712 173.108 460.803 172.579 460.803 171.996C460.803 171.421 460.714 170.902 460.537 170.441C460.363 169.976 460.098 169.608 459.743 169.338C459.391 169.065 458.949 168.928 458.417 168.928C457.905 168.928 457.476 169.058 457.128 169.317C456.78 169.573 456.517 169.931 456.339 170.393C456.162 170.851 456.073 171.385 456.073 171.996ZM467.302 176.258C466.563 176.258 465.915 176.082 465.357 175.73C464.803 175.379 464.37 174.887 464.058 174.255C463.749 173.623 463.594 172.884 463.594 172.039C463.594 171.187 463.749 170.443 464.058 169.807C464.37 169.171 464.803 168.678 465.357 168.326C465.915 167.975 466.563 167.799 467.302 167.799C468.04 167.799 468.687 167.975 469.241 168.326C469.798 168.678 470.231 169.171 470.54 169.807C470.853 170.443 471.009 171.187 471.009 172.039C471.009 172.884 470.853 173.623 470.54 174.255C470.231 174.887 469.798 175.379 469.241 175.73C468.687 176.082 468.04 176.258 467.302 176.258ZM467.302 175.128C467.863 175.128 468.324 174.985 468.687 174.697C469.049 174.409 469.317 174.031 469.491 173.562C469.665 173.094 469.752 172.586 469.752 172.039C469.752 171.492 469.665 170.982 469.491 170.51C469.317 170.038 469.049 169.656 468.687 169.365C468.324 169.074 467.863 168.928 467.302 168.928C466.741 168.928 466.279 169.074 465.917 169.365C465.554 169.656 465.286 170.038 465.112 170.51C464.938 170.982 464.851 171.492 464.851 172.039C464.851 172.586 464.938 173.094 465.112 173.562C465.286 174.031 465.554 174.409 465.917 174.697C466.279 174.985 466.741 175.128 467.302 175.128ZM472.928 176.087V167.905H474.142V169.141H474.228C474.377 168.736 474.647 168.408 475.037 168.156C475.428 167.904 475.868 167.777 476.358 167.777C476.451 167.777 476.566 167.779 476.705 167.783C476.843 167.786 476.948 167.792 477.019 167.799V169.077C476.976 169.067 476.879 169.051 476.726 169.029C476.577 169.004 476.419 168.992 476.252 168.992C475.854 168.992 475.499 169.075 475.186 169.242C474.877 169.406 474.632 169.633 474.451 169.924C474.274 170.212 474.185 170.54 474.185 170.91V176.087H472.928ZM480.917 176.279C480.398 176.279 479.928 176.181 479.505 175.986C479.082 175.787 478.747 175.501 478.498 175.128C478.25 174.752 478.125 174.297 478.125 173.765C478.125 173.296 478.218 172.916 478.402 172.625C478.587 172.33 478.834 172.099 479.143 171.932C479.452 171.765 479.793 171.641 480.166 171.559C480.542 171.474 480.92 171.407 481.3 171.357C481.797 171.293 482.2 171.245 482.509 171.213C482.822 171.178 483.049 171.119 483.191 171.037C483.337 170.956 483.41 170.814 483.41 170.611V170.569C483.41 170.043 483.266 169.635 482.978 169.344C482.694 169.052 482.263 168.907 481.684 168.907C481.084 168.907 480.613 169.038 480.272 169.301C479.931 169.564 479.691 169.844 479.553 170.143L478.36 169.716C478.573 169.219 478.857 168.832 479.212 168.555C479.571 168.275 479.961 168.079 480.384 167.969C480.81 167.856 481.229 167.799 481.641 167.799C481.904 167.799 482.206 167.831 482.547 167.895C482.891 167.955 483.223 168.081 483.543 168.273C483.866 168.465 484.134 168.754 484.347 169.141C484.56 169.528 484.667 170.047 484.667 170.697V176.087H483.41V174.979H483.346C483.26 175.157 483.118 175.347 482.919 175.549C482.721 175.752 482.456 175.924 482.126 176.066C481.796 176.208 481.392 176.279 480.917 176.279ZM481.108 175.15C481.606 175.15 482.025 175.052 482.366 174.857C482.71 174.661 482.969 174.409 483.143 174.1C483.321 173.791 483.41 173.466 483.41 173.126V171.975C483.356 172.039 483.239 172.097 483.058 172.151C482.88 172.2 482.674 172.245 482.44 172.284C482.209 172.319 481.984 172.351 481.764 172.38C481.547 172.405 481.371 172.426 481.236 172.444C480.91 172.486 480.604 172.556 480.32 172.651C480.04 172.744 479.812 172.884 479.638 173.072C479.468 173.257 479.383 173.509 479.383 173.829C479.383 174.265 479.544 174.596 479.867 174.819C480.194 175.04 480.608 175.15 481.108 175.15ZM488.218 165.178V176.087H486.961V165.178H488.218Z" fill="white"/>
<path d="M417.869 28.4295C408.609 28.4642 399.74 32.167 393.205 38.7271C386.669 45.2871 383 54.1696 383 63.4295C383 70.0044 384.852 76.4463 388.343 82.0174L417.528 44.2903C417.575 44.2282 417.644 44.1766 417.727 44.1407C417.81 44.1049 417.904 44.086 418 44.086C418.096 44.086 418.19 44.1049 418.273 44.1407C418.356 44.1766 418.425 44.2282 418.473 44.2903L447.657 82.0174C451.148 76.4463 453 70.0044 453 63.4295C453 54.1469 449.313 45.2445 442.749 38.6808C436.185 32.117 427.283 28.4295 418 28.4295C417.956 28.4294 417.913 28.4294 417.869 28.4295V28.4295ZM418.963 47.2916L431.843 95.5712C437.894 92.9669 443.087 88.7077 446.825 83.2833L418.963 47.2916Z" fill="url(#paint0_linear_335_5)"/>
<defs>
<filter id="filter0_d_335_5" x="0" y="0" width="836" height="215" filterUnits="userSpaceOnUse" color-interpolation-filters="sRGB">
<feFlood flood-opacity="0" result="BackgroundImageFix"/>
<feColorMatrix in="SourceAlpha" type="matrix" values="0 0 0 0 0 0 0 0 0 0 0 0 0 0 0 0 0 0 127 0" result="hardAlpha"/>
<feOffset dy="4"/>
<feGaussianBlur stdDeviation="2"/>
<feComposite in2="hardAlpha" operator="out"/>
<feColorMatrix type="matrix" values="0 0 0 0 0 0 0 0 0 0 0 0 0 0 0 0 0 0 0.25 0"/>
<feBlend mode="normal" in2="BackgroundImageFix" result="effect1_dropShadow_335_5"/>
<feBlend mode="normal" in="SourceGraphic" in2="effect1_dropShadow_335_5" result="shape"/>
</filter>
<linearGradient id="paint0_linear_335_5" x1="383" y1="63.0607" x2="453" y2="63.0607" gradientUnits="userSpaceOnUse">
<stop stop-color="#F06625"/>
<stop offset="1" stop-color="#F9B818"/>
</linearGradient>
</defs>
</svg>
