<svg width="766" height="766" viewBox="0 0 766 766" fill="none" xmlns="http://www.w3.org/2000/svg">
<path fill-rule="evenodd" clip-rule="evenodd" d="M0.699951 603.8V765.2H162.2L629.3 293.8L467.9 132.3L0.699951 603.8Z" fill="url(#paint0_linear_420_141)"/>
<path fill-rule="evenodd" clip-rule="evenodd" d="M0.699951 603.8V765.2H162.2L629.3 293.8L467.9 132.3L0.699951 603.8Z" fill="url(#paint1_linear_420_141)"/>
<path fill-rule="evenodd" clip-rule="evenodd" d="M752.6 170.5C769.5 153.6 769.5 128 752.6 111.1L654.9 13.4001C638 -3.4999 612.4 -3.4999 595.5 13.4001L519 89.8001L680.5 251.3L752.6 170.5Z" fill="url(#paint2_linear_420_141)"/>
<path fill-rule="evenodd" clip-rule="evenodd" d="M752.6 170.5C769.5 153.6 769.5 128 752.6 111.1L654.9 13.4001C638 -3.4999 612.4 -3.4999 595.5 13.4001L519 89.8001L680.5 251.3L752.6 170.5Z" fill="url(#paint3_linear_420_141)"/>
<defs>
<linearGradient id="paint0_linear_420_141" x1="181.257" y1="297.82" x2="378.865" y2="640.088" gradientUnits="userSpaceOnUse">
<stop stop-color="#FF00A0"/>
<stop offset="1" stop-color="#9600FF"/>
</linearGradient>
<linearGradient id="paint1_linear_420_141" x1="0.69995" y1="458.746" x2="629.3" y2="458.746" gradientUnits="userSpaceOnUse">
<stop stop-color="#F06625"/>
<stop offset="1" stop-color="#F9B818"/>
</linearGradient>
<linearGradient id="paint2_linear_420_141" x1="587.909" y1="16.001" x2="712.933" y2="232.549" gradientUnits="userSpaceOnUse">
<stop stop-color="#FF00A0"/>
<stop offset="1" stop-color="#9600FF"/>
</linearGradient>
<linearGradient id="paint3_linear_420_141" x1="519" y1="129.97" x2="765.275" y2="129.97" gradientUnits="userSpaceOnUse">
<stop stop-color="#F06625"/>
<stop offset="1" stop-color="#F9B818"/>
</linearGradient>
</defs>
</svg>
