<svg width="70" height="70" viewBox="0 0 70 70" fill="none" xmlns="http://www.w3.org/2000/svg">
<path d="M34.8688 1.4295C25.6089 1.46423 16.7402 5.16704 10.2048 11.7271C3.6694 18.2871 -6.51004e-05 27.1696 8.41322e-09 36.4295C-0.000144126 43.0044 1.85168 49.4463 5.34333 55.0174L34.5275 17.2903C34.5754 17.2282 34.6442 17.1766 34.7272 17.1407C34.8101 17.1049 34.9042 17.086 35 17.086C35.0958 17.086 35.1899 17.1049 35.2728 17.1407C35.3558 17.1766 35.4247 17.2282 35.4725 17.2903L64.6567 55.0174C68.1483 49.4463 70.0001 43.0044 70 36.4295C70 27.1469 66.3125 18.2445 59.7487 11.6808C53.185 5.11699 44.2826 1.4295 35 1.4295C34.9563 1.42942 34.9125 1.42942 34.8688 1.4295V1.4295ZM35.9625 20.2916L48.8425 68.5712C54.8937 65.9669 60.0871 61.7077 63.8254 56.2833L35.9625 20.2916Z" fill="url(#paint0_linear_420_116)"/>
<defs>
<linearGradient id="paint0_linear_420_116" x1="-1.69558e-07" y1="36.0607" x2="70" y2="36.0607" gradientUnits="userSpaceOnUse">
<stop stop-color="#F06625"/>
<stop offset="1" stop-color="#F9B818"/>
</linearGradient>
</defs>
</svg>
