<svg width="584" height="765" viewBox="0 0 584 765" fill="none" xmlns="http://www.w3.org/2000/svg">
<path fill-rule="evenodd" clip-rule="evenodd" d="M510.6 255.6H474.1V182.9C474.1 81 393.9 0.800049 292 0.800049C190.1 0.800049 110 81 110 182.9V255.6H73.5C33.5 255.6 0.800049 288.3 0.800049 328.3V692.3C0.800049 732.3 33.5 765 73.5 765H510.4C550.4 765 583.1 732.3 583.1 692.3V328.6C583.6 288.6 550.8 255.6 510.6 255.6ZM292.3 583.4C252.3 583.4 219.6 550.7 219.6 510.7C219.6 470.7 252.3 438 292.3 438C332.3 438 365 470.7 365 510.7C365 550.6 332.3 583.4 292.3 583.4ZM405.2 255.6H179.4V182.9C179.4 121 230.4 70 292.3 70C354.2 70 405.2 121 405.2 182.9V255.6V255.6Z" fill="url(#paint0_linear_420_124)"/>
<defs>
<linearGradient id="paint0_linear_420_124" x1="0.800047" y1="394.97" x2="583.106" y2="394.97" gradientUnits="userSpaceOnUse">
<stop stop-color="#F06625"/>
<stop offset="1" stop-color="#F9B818"/>
</linearGradient>
</defs>
</svg>
