<svg width="840" height="770" viewBox="0 0 840 770" fill="none" xmlns="http://www.w3.org/2000/svg">
<path fill-rule="evenodd" clip-rule="evenodd" d="M609 0.600098C537.6 0.600098 466.3 34.2001 420 88.8001C373.8 34.2001 302.4 0.600098 231 0.600098C100.8 0.600098 0 101.4 0 231.6C0 391.3 142.7 521.4 361.3 714.6L420.2 769.2L479.1 714.6C693 517.3 840 387 840 231.7C840 101.4 739.2 0.600098 609 0.600098Z" fill="url(#paint0_linear_420_155)"/>
<path fill-rule="evenodd" clip-rule="evenodd" d="M609 0.600098C537.6 0.600098 466.3 34.2001 420 88.8001C373.8 34.2001 302.4 0.600098 231 0.600098C100.8 0.600098 0 101.4 0 231.6C0 391.3 142.7 521.4 361.3 714.6L420.2 769.2L479.1 714.6C693 517.3 840 387 840 231.7C840 101.4 739.2 0.600098 609 0.600098Z" fill="url(#paint1_linear_420_155)"/>
<defs>
<linearGradient id="paint0_linear_420_155" x1="254.292" y1="-49.8427" x2="650.457" y2="636.335" gradientUnits="userSpaceOnUse">
<stop stop-color="#FF00A0"/>
<stop offset="1" stop-color="#9600FF"/>
</linearGradient>
<linearGradient id="paint1_linear_420_155" x1="-2.03469e-06" y1="397.039" x2="840" y2="397.039" gradientUnits="userSpaceOnUse">
<stop stop-color="#F06625"/>
<stop offset="1" stop-color="#F9B818"/>
</linearGradient>
</defs>
</svg>
